HIERARCHY
ROOT root
{
	OFFSET 0.000000 0.000000 0.000000
	CHANNELS 6 Xposition Yposition Zposition Zrotation Yrotation Xrotation
	JOINT lhip
	{
		OFFSET 0.058581 -0.082280 -0.017664
		CHANNELS 3 Zrotation Yrotation Xrotation
		JOINT lknee
		{
			OFFSET 0.043451 -0.386469 0.008037
			CHANNELS 3 Zrotation Yrotation Xrotation
			JOINT lankle
			{
				OFFSET -0.014790 -0.426874 -0.037428
				CHANNELS 3 Zrotation Yrotation Xrotation
				JOINT ltoe
				{
					OFFSET 0.041054 -0.060286 0.122042
					CHANNELS 3 Zrotation Yrotation Xrotation
					End Site
					{
						OFFSET 0.000000 0.000000 0.000000
					}
				}
			}
		}
	}
	JOINT rhip
	{
		OFFSET -0.060310 -0.090513 -0.013543
		CHANNELS 3 Zrotation Yrotation Xrotation
		JOINT rknee
		{
			OFFSET -0.043257 -0.383688 -0.004843
			CHANNELS 3 Zrotation Yrotation Xrotation
			JOINT rankle
			{
				OFFSET 0.019056 -0.420046 -0.034562
				CHANNELS 3 Zrotation Yrotation Xrotation
				JOINT rtoe
				{
					OFFSET -0.034840 -0.062106 0.130323
					CHANNELS 3 Zrotation Yrotation Xrotation
					End Site
					{
						OFFSET 0.000000 0.000000 0.000000
					}
				}
			}
		}
	}
	JOINT lowerback
	{
		OFFSET 0.004439 0.124404 -0.038385
		CHANNELS 3 Zrotation Yrotation Xrotation
		JOINT upperback
		{
			OFFSET 0.004488 0.137956 0.026820
			CHANNELS 3 Zrotation Yrotation Xrotation
			JOINT chest
			{
				OFFSET -0.002265 0.056032 0.002855
				CHANNELS 3 Zrotation Yrotation Xrotation
				JOINT lowerneck
				{
					OFFSET -0.013390 0.211636 -0.033468
					CHANNELS 3 Zrotation Yrotation Xrotation
					JOINT upperneck
					{
						OFFSET 0.010113 0.088937 0.050410
						CHANNELS 3 Zrotation Yrotation Xrotation
						End Site
						{
							OFFSET 0.000000 0.000000 0.000000
						}
					}
				}
				JOINT lclavicle
				{
					OFFSET 0.071702 0.114000 -0.018898
					CHANNELS 3 Zrotation Yrotation Xrotation
					JOINT lshoulder
					{
						OFFSET 0.122921 0.045205 -0.019046
						CHANNELS 3 Zrotation Yrotation Xrotation
						JOINT lelbow
						{
							OFFSET 0.255332 -0.015649 -0.022946
							CHANNELS 3 Zrotation Yrotation Xrotation
							JOINT lwrist
							{
								OFFSET 0.265709 0.012698 -0.007375
								CHANNELS 3 Zrotation Yrotation Xrotation
								End Site
								{
									OFFSET 0.000000 0.000000 0.000000
								}
							}
						}
					}
				}
				JOINT rclavicle
				{
					OFFSET -0.082954 0.112472 -0.023707
					CHANNELS 3 Zrotation Yrotation Xrotation
					JOINT rshoulder
					{
						OFFSET -0.113228 0.046853 -0.008472
						CHANNELS 3 Zrotation Yrotation Xrotation
						JOINT relbow
						{
							OFFSET -0.260127 -0.014369 -0.031269
							CHANNELS 3 Zrotation Yrotation Xrotation
							JOINT rwrist
							{
								OFFSET -0.269108 0.006794 -0.006027
								CHANNELS 3 Zrotation Yrotation Xrotation
								End Site
								{
									OFFSET 0.000000 0.000000 0.000000
								}
							}
						}
					}
				}
			}
		}
	}
}
MOTION
Frames: 14
Frame Time: 0.033333
-0.668915 0.785269 0.769929 109.094932 -9.044329 101.773336 21.349784 15.766084 -31.492797 -6.473284 6.051741 57.604913 -4.674412 -1.527561 -29.709509 0.000000 -0.000000 0.000000 -34.221954 -26.871078 -52.737037 0.227891 -4.648318 53.971325 14.476399 1.001968 -5.490211 0.000000 -0.000000 0.000000 12.737509 -2.800301 45.263273 2.423632 5.678786 -11.174956 5.302986 5.100981 -6.595235 0.875415 -16.838126 -19.430483 3.218188 -8.361482 2.207887 -15.208210 -35.109310 -1.386599 -61.872245 -26.070651 18.606171 14.722725 -81.660989 17.406977 38.514655 -13.135939 -16.614455 0.582025 39.210205 -5.631030 0.758376 30.788115 -35.262465 -99.466124 47.578473 -90.706754 -1.605027 14.598200 -22.175471 
-0.674011 0.785030 0.763955 108.940269 -8.367776 102.267666 22.154030 16.368211 -33.042708 -6.704986 6.239045 59.686226 -4.607324 -1.971731 -30.764181 0.000000 -0.000000 0.000000 -33.740899 -26.680597 -54.100989 -0.081564 -5.025831 55.012632 14.676359 1.604206 -5.898658 0.000000 -0.000000 0.000000 11.651347 -3.114695 44.691480 1.983740 5.005141 -10.810517 4.973812 4.660598 -6.232603 1.948362 -16.337864 -20.132229 4.353126 -7.959337 2.686200 -14.594668 -34.391369 -2.279848 -61.660401 -26.093076 18.190320 24.197213 -83.199300 7.537346 37.707531 -13.738332 -14.554052 -0.417251 38.577464 -6.449435 2.245781 32.929743 -32.680930 -104.931512 51.984603 -95.055212 2.246187 15.766751 -18.720158 
-0.679745 0.784791 0.757701 109.278061 -7.564306 101.839861 23.098589 16.530927 -33.953144 -6.673019 6.081276 61.430456 -4.998384 -2.281070 -31.795422 0.000000 -0.000000 0.000000 -33.446288 -26.455560 -54.776750 -0.211982 -5.063144 56.440660 14.475473 2.358657 -6.501461 0.000000 -0.000000 0.000000 10.549998 -3.578390 45.204171 1.511915 4.385200 -9.484228 4.507706 4.469498 -7.010672 2.787890 -15.811089 -21.554625 5.569246 -7.865611 3.268508 -13.710277 -34.816493 -3.469431 -62.006488 -26.582387 18.265618 41.528866 -82.698752 -10.100766 37.188186 -15.051112 -12.556681 -2.083150 38.880939 -7.376498 4.412059 32.460856 -29.766997 -107.078095 52.049161 -97.172422 8.089865 17.280476 -16.367684 
-0.685673 0.785399 0.751182 110.093856 -6.627242 101.879362 23.704294 16.687068 -35.738559 -6.140216 5.736315 63.352601 -3.781235 -2.758328 -32.079725 0.000000 -0.000000 0.000000 -32.699943 -27.072037 -55.457793 -0.421364 -5.105511 57.478959 14.814366 2.844194 -6.059064 0.000000 -0.000000 0.000000 9.861269 -3.108940 45.535300 1.041779 4.100378 -10.201856 4.539030 4.190930 -6.696618 3.381676 -17.131026 -21.638516 7.183274 -7.730063 2.675559 -13.191411 -35.148366 -3.977811 -62.686090 -27.929614 18.168888 45.308319 -83.194390 -13.337337 31.047918 -13.384244 -11.776625 -3.028710 38.015289 -7.448220 5.590776 31.812363 -29.746279 -109.552464 52.135734 -97.093294 13.584323 17.806887 -11.190025 
-0.691353 0.785305 0.744516 111.001041 -5.859193 101.485494 24.221827 16.419597 -36.952683 -5.891342 5.122533 64.945223 -3.663931 -2.426456 -33.209777 0.000000 -0.000000 0.000000 -32.606644 -27.456038 -55.579119 -0.431821 -5.456196 58.535582 15.274000 2.805058 -5.913744 0.000000 -0.000000 0.000000 9.145348 -2.801115 46.380112 0.441312 3.834172 -10.332542 4.154667 3.963836 -6.797508 3.623752 -17.727135 -21.916802 8.089584 -8.111186 3.594289 -12.558718 -36.041163 -4.843663 -63.340151 -29.207828 18.825895 48.029241 -82.311525 -15.308104 32.006590 -14.641736 -10.935664 -4.248337 37.882770 -8.034248 6.853164 29.552746 -28.224092 -112.949103 52.620145 -99.256635 17.935014 19.434001 -12.100766 
-0.697186 0.785455 0.739001 111.537120 -5.124991 101.407565 24.757496 16.380644 -37.930730 -5.349689 5.104158 65.868539 -2.328294 -1.331671 -34.917385 0.000000 -0.000000 0.000000 -31.541311 -28.066680 -56.387131 -0.123229 -4.645492 59.062827 15.181331 2.205512 -5.449573 0.000000 -0.000000 0.000000 8.405291 -2.492273 46.969996 -0.371202 3.582425 -9.714838 4.064180 3.729797 -7.529690 3.178676 -19.926946 -21.547242 9.750848 -7.173522 3.390052 -11.901506 -36.767428 -5.672488 -63.451049 -29.205734 19.046482 57.726708 -83.646275 -25.343582 25.736337 -11.766758 -10.113279 -6.259314 37.783510 -8.202411 8.704808 26.758717 -26.332485 -118.821961 54.029821 -103.311489 27.140526 19.061252 -9.201977 
-0.702480 0.784719 0.733522 112.207573 -4.581837 101.455452 25.431848 16.181376 -38.903734 -5.453254 5.267989 66.387277 -2.080843 -0.832183 -36.041527 0.000000 -0.000000 0.000000 -31.668800 -28.182328 -56.664465 -0.044188 -5.130204 59.850824 15.547635 2.219951 -5.634047 0.000000 -0.000000 0.000000 7.495959 -2.325370 47.700395 -1.224660 3.002130 -9.876796 3.472075 3.604247 -6.559597 3.759579 -19.394976 -22.932443 10.866382 -8.048883 4.800154 -10.714008 -36.762509 -6.788198 -64.827914 -30.444490 20.232194 58.369289 -83.606700 -25.492365 28.344970 -14.404527 -7.886619 -7.679205 36.426693 -9.314275 11.092751 24.931528 -22.828883 -126.785643 57.533660 -107.922094 33.076599 19.212597 -5.298244 
-0.708467 0.784468 0.729302 113.384431 -4.143253 101.567429 25.712255 16.033794 -40.437276 -5.504599 5.024994 66.767135 -1.809414 -0.395991 -36.019845 0.000000 -0.000000 0.000000 -31.563799 -28.746483 -56.813168 -0.254129 -5.283124 60.513586 15.764672 1.982085 -5.535430 0.000000 -0.000000 0.000000 6.731464 -2.385723 48.683340 -2.028437 2.045958 -9.897179 3.143412 3.235932 -6.289470 4.597893 -19.702689 -22.893992 12.892298 -8.135457 3.998466 -10.665211 -36.222720 -7.325611 -65.211118 -30.577539 21.062450 61.822194 -85.578849 -28.611509 26.264009 -13.016981 -7.332756 -7.712047 35.244042 -7.631413 12.665980 22.592230 -19.769589 -134.043583 61.501616 -113.489173 27.275326 16.324543 -2.255454 
-0.714188 0.782490 0.725761 114.681753 -3.721718 101.704114 25.811376 16.242601 -42.115347 -5.409109 4.825212 67.020954 -1.978103 -0.145912 -36.222401 0.000000 -0.000000 0.000000 -31.249687 -29.103037 -57.186972 -0.818736 -5.170324 61.474976 16.403369 1.830262 -5.823138 0.000000 -0.000000 0.000000 6.029353 -1.884082 50.378128 -2.668720 1.499457 -10.902467 2.919667 2.694191 -5.364959 5.413223 -19.365929 -23.195266 14.689830 -9.913063 2.703752 -11.640127 -35.821936 -6.928913 -65.667104 -32.421624 22.215895 32.514866 -87.000014 1.568912 35.769311 -15.390159 -7.613266 -6.671439 33.137065 -6.091899 12.618379 20.449987 -18.139320 -138.472010 65.948002 -115.157663 7.830711 14.724990 1.667363 
-0.720895 0.778503 0.722924 115.923015 -2.958562 102.130079 26.582632 16.341757 -43.539066 -5.007420 5.405294 66.676872 -2.394493 -0.589323 -36.599790 0.000000 -0.000000 0.000000 -31.351868 -28.620074 -57.470805 -1.549268 -6.149400 62.530862 17.300625 1.567126 -6.166229 0.000000 -0.000000 0.000000 5.102055 -1.119259 51.541477 -2.593730 1.089144 -10.921068 3.065357 2.303178 -4.592561 6.304418 -18.301273 -23.735306 14.775030 -11.079817 1.700392 -12.460748 -35.739640 -6.580778 -66.688303 -33.944716 23.720801 40.764327 -87.708602 -4.983686 41.517057 -19.080880 -7.553797 -5.262360 32.041886 -6.044390 10.964357 19.253569 -17.936813 -136.127748 67.431421 -111.329905 0.603300 14.795291 3.366953 
-0.729213 0.777261 0.721367 117.783195 -2.420337 102.430968 26.470526 15.947953 -45.682089 -4.856659 4.552228 66.700426 -2.613747 -0.790618 -36.533513 0.000000 -0.000000 0.000000 -31.110928 -28.866743 -57.034749 -2.052855 -6.140006 62.216487 17.290494 0.834145 -5.942864 0.000000 -0.000000 0.000000 5.021702 -1.528837 53.613385 -2.726000 0.392938 -11.399177 3.062252 1.856699 -4.832809 6.357547 -19.736844 -23.764614 15.848496 -10.809164 1.248521 -12.758432 -36.137117 -6.637027 -68.085951 -34.552357 24.543219 56.924064 -87.721364 -19.877102 40.019831 -17.612030 -8.215824 -6.283098 31.621071 -6.999796 10.334943 17.756124 -19.045277 -131.142602 65.644244 -107.385786 2.688923 15.838249 1.446363 
-0.737390 0.775552 0.718497 118.998977 -2.532939 103.652178 26.497832 15.389092 -48.452724 -5.237491 5.148857 67.068573 -2.045962 -0.983302 -35.640418 0.000000 -0.000000 0.000000 -31.567036 -28.951956 -57.618131 -1.586098 -6.156275 61.614422 17.018152 -0.946110 -5.369216 0.000000 -0.000000 0.000000 4.678303 -1.729309 53.835368 -2.946771 -0.657891 -11.572294 2.629645 1.448821 -4.716423 6.036972 -20.419126 -23.547995 16.056847 -10.499602 1.835090 -12.905821 -37.169751 -6.563746 -67.892439 -35.991580 24.858962 85.194672 -87.581393 -47.694100 34.248102 -16.136871 -6.704151 -7.093925 31.351386 -8.011750 10.074584 17.972161 -20.776153 -127.826098 61.789066 -104.095565 7.011133 15.682640 1.574675 
-0.740926 0.772462 0.716320 119.180363 -1.892103 104.055698 26.863675 16.587190 -49.562438 -5.213262 4.956454 67.457457 -2.839583 -2.124517 -35.214863 0.000000 -0.000000 0.000000 -30.743223 -28.078604 -58.401919 -2.970972 -6.289488 61.922519 17.086321 -0.283658 -4.894436 0.000000 -0.000000 0.000000 3.710934 -1.609065 55.284096 -3.066816 -0.970888 -12.904598 3.020845 1.363712 -4.881317 4.801813 -20.752556 -21.856918 16.543960 -10.012503 1.047576 -12.750656 -39.069901 -6.083690 -66.729709 -36.460261 23.781377 98.485766 -86.361767 -59.995017 35.264972 -16.875649 -5.286281 -8.426434 32.659356 -8.701453 10.160193 17.821560 -22.887168 -125.063280 59.640172 -101.135375 7.297053 15.353074 -0.127060 
-0.745497 0.770171 0.712647 119.427872 -1.595810 103.687345 27.629234 16.936650 -49.990142 -5.528066 5.383693 68.209385 -2.659294 -3.153524 -34.856713 0.000000 -0.000000 0.000000 -30.626259 -28.130299 -58.708851 -2.940983 -6.313484 62.413754 16.418231 -0.316873 -5.041767 0.000000 -0.000000 0.000000 3.064231 -1.561279 55.498632 -3.212323 -1.559621 -11.687483 3.115472 1.276317 -5.600174 4.481085 -21.205481 -20.188605 17.036305 -8.775120 0.457024 -13.070077 -40.574300 -5.461521 -65.251604 -36.434545 22.927369 110.384328 -85.071282 -72.506862 32.299799 -15.466201 -3.936475 -9.634625 34.159632 -9.122444 10.636552 17.209246 -23.440141 -120.576796 58.033995 -97.729172 11.998451 14.954579 -0.660930 
